<?xml version="1.0" standalone="no"?>
<!DOCTYPE svg PUBLIC "-//W3C//DTD SVG 20010904//EN"
 "http://www.w3.org/TR/2001/REC-SVG-20010904/DTD/svg10.dtd">
<svg version="1.0" xmlns="http://www.w3.org/2000/svg"
 width="192.000000pt" height="192.000000pt" viewBox="0 0 192.000000 192.000000"
 preserveAspectRatio="xMidYMid meet">
<metadata>
Created by potrace 1.14, written by Peter Selinger 2001-2017
</metadata>
<g transform="translate(0.000000,192.000000) scale(0.100000,-0.100000)"
fill="#000000" stroke="none">
<path d="M457 1882 l-26 -27 54 -61 54 -61 378 1 378 1 25 26 c14 15 38 40 54
58 l30 31 -29 30 -29 30 -431 0 -431 0 -27 -28z"/>
<path d="M1371 1756 l-51 -55 0 -299 0 -299 59 -59 c32 -33 62 -60 67 -61 5
-1 16 -4 25 -8 20 -8 19 -37 19 409 0 377 0 380 -22 403 -12 13 -27 23 -33 23
-7 0 -35 -24 -64 -54z"/>
<path d="M837 1683 c-2 -5 -4 -127 -3 -273 l2 -265 33 -60 c51 -92 46 -93 101
13 l33 64 -1 246 c0 136 -1 255 -1 265 -1 15 -12 17 -80 17 -44 0 -82 -3 -84
-7z"/>
<path d="M1383 878 l-62 -63 0 -302 1 -301 48 -51 c27 -28 55 -51 62 -51 8 0
24 10 36 23 21 22 22 29 23 392 0 204 0 380 0 393 -2 42 -42 27 -108 -40z"/>
<path d="M875 842 l-40 -67 -1 -272 -1 -273 26 -1 c14 0 52 -1 84 -2 54 -2 57
-1 58 23 0 14 1 136 1 271 l1 246 -42 71 c-23 40 -43 72 -44 72 -1 0 -20 -31
-42 -68z"/>
<path d="M549 181 c-7 -2 -37 -29 -67 -59 l-53 -55 27 -29 28 -28 432 0 433 0
26 27 c14 15 25 30 25 33 0 3 -25 30 -55 60 l-56 55 -363 1 c-199 0 -369 -2
-377 -5z"/>
</g>
</svg>
