<svg width="42" height="42" viewBox="0 0 42 42" fill="none" xmlns="http://www.w3.org/2000/svg">
<path opacity="0.1" d="M42 21C42 32.598 32.598 42 21 42C9.40202 42 0 32.598 0 21C0 9.40202 9.40202 0 21 0C32.598 0 42 9.40202 42 21ZM6.55875 21C6.55875 28.9757 13.0243 35.4413 21 35.4413C28.9757 35.4413 35.4413 28.9757 35.4413 21C35.4413 13.0243 28.9757 6.55875 21 6.55875C13.0243 6.55875 6.55875 13.0243 6.55875 21Z" fill="white"/>
<path d="M41.5 21C41.7761 21 42.0006 21.2239 41.994 21.5C41.9324 24.0874 41.393 26.6426 40.4015 29.0364C39.3461 31.5842 37.7993 33.8992 35.8492 35.8492C33.8992 37.7993 31.5842 39.3461 29.0364 40.4015C26.4885 41.4568 23.7578 42 21 42C18.2422 42 15.5115 41.4568 12.9636 40.4015C10.4158 39.3461 8.10079 37.7993 6.15076 35.8492C4.20073 33.8992 2.65388 31.5842 1.59853 29.0364C0.606998 26.6426 0.0675657 24.0874 0.00595186 21.5C-0.000622082 21.2239 0.223858 21 0.5 21H6.0251C6.30124 21 6.52419 21.2239 6.53373 21.4999C6.59352 23.2302 6.96333 24.9372 7.62693 26.5393C8.35436 28.2955 9.42058 29.8912 10.7647 31.2353C12.1088 32.5794 13.7045 33.6456 15.4607 34.3731C17.2169 35.1005 19.0991 35.4749 21 35.4749C22.9009 35.4749 24.7831 35.1005 26.5393 34.3731C28.2955 33.6456 29.8912 32.5794 31.2353 31.2353C32.5794 29.8912 33.6456 28.2955 34.3731 26.5393C35.0367 24.9372 35.4065 23.2302 35.4663 21.4999C35.4758 21.2239 35.6988 21 35.9749 21H41.5Z" fill="#07A4DB"/>
</svg>
