<svg width="21" height="24" viewBox="0 0 21 24" fill="none" xmlns="http://www.w3.org/2000/svg">
<line x1="3" y1="22" x2="19" y2="22" stroke="white" stroke-width="2"/>
<path d="M16.125 10.6719H19.2188C19.2188 11.6094 19.0938 12.4635 18.8438 13.2344C18.5938 14.0052 18.2396 14.6719 17.7812 15.2344C17.3229 15.7969 16.776 16.2344 16.1406 16.5469C15.5156 16.849 14.8229 17 14.0625 17C13.2083 17 12.4479 16.8281 11.7812 16.4844C11.125 16.1406 10.4115 15.6146 9.64062 14.9062C9.18229 14.4583 8.75 14.1146 8.34375 13.875C7.94792 13.6354 7.52083 13.5156 7.0625 13.5156C6.625 13.5156 6.24479 13.6406 5.92188 13.8906C5.60938 14.1406 5.35938 14.4844 5.17188 14.9219C4.99479 15.349 4.90625 15.849 4.90625 16.4219L1.76562 16.4062C1.76562 15.4688 1.88542 14.6198 2.125 13.8594C2.375 13.0885 2.72917 12.4323 3.1875 11.8906C3.64583 11.3385 4.1875 10.9167 4.8125 10.625C5.4375 10.3333 6.13021 10.1875 6.89062 10.1875C7.74479 10.1875 8.52083 10.3698 9.21875 10.7344C9.91667 11.0885 10.6198 11.6042 11.3281 12.2812C11.8073 12.7396 12.2448 13.0833 12.6406 13.3125C13.0365 13.5417 13.4531 13.6562 13.8906 13.6562C14.3281 13.6562 14.7135 13.526 15.0469 13.2656C15.3802 13.0052 15.6406 12.651 15.8281 12.2031C16.026 11.7552 16.125 11.2448 16.125 10.6719Z" fill="white"/>
</svg>
