<svg width="31" height="31" viewBox="0 0 31 31" fill="none" xmlns="http://www.w3.org/2000/svg">
<path d="M15.4981 0C6.94013 0 0 6.96725 0 15.562C0 22.4362 4.44075 28.2681 10.602 30.3277C11.377 30.4711 11.6599 29.9906 11.6599 29.5779C11.6599 29.2078 11.6463 28.2294 11.6386 26.9312C7.32763 27.8709 6.417 24.8446 6.417 24.8446C5.71369 23.0466 4.6965 22.568 4.6965 22.568C3.28794 21.6031 4.80112 21.6225 4.80112 21.6225C6.35694 21.7329 7.17456 23.2267 7.17456 23.2267C8.55794 25.6041 10.8035 24.9182 11.687 24.5191C11.8265 23.5135 12.2276 22.8276 12.6712 22.4382C9.23025 22.0449 5.611 20.7099 5.611 14.7482C5.611 13.0491 6.2155 11.6599 7.2075 10.571C7.04669 10.1777 6.51581 8.59475 7.35863 6.45381C7.35863 6.45381 8.66063 6.03531 11.6211 8.04838C12.8573 7.7035 14.1825 7.53106 15.5019 7.52525C16.8175 7.533 18.1447 7.7035 19.3827 8.05031C22.3413 6.03725 23.6414 6.45575 23.6414 6.45575C24.4861 8.59862 23.9552 10.1796 23.7964 10.5729C24.7903 11.6618 25.389 13.051 25.389 14.7502C25.389 20.7274 21.7659 22.0429 18.3132 22.4285C18.8693 22.909 19.3653 23.8584 19.3653 25.3096C19.3653 27.3904 19.3459 29.0683 19.3459 29.5779C19.3459 29.9944 19.6249 30.4788 20.4116 30.3257C26.5631 28.2642 31 22.4343 31 15.562C31 6.96725 24.0599 0 15.4981 0Z" fill="#5C6BC0"/>
</svg>
