<svg width="17" height="17" viewBox="0 0 17 17" fill="none" xmlns="http://www.w3.org/2000/svg">
<path d="M8.5 0C3.81328 0 0 3.81328 0 8.5C0 13.1867 3.81328 17 8.5 17C13.1867 17 17 13.1867 17 8.5C17 3.81328 13.1867 0 8.5 0ZM13.2506 6.26316L7.8183 11.6529C7.49875 11.9724 6.98747 11.9937 6.64662 11.6742L3.77068 9.05389C3.42982 8.73434 3.40852 8.20175 3.70677 7.8609C4.02632 7.52005 4.5589 7.49875 4.89975 7.8183L7.1792 9.90602L12.0363 5.04887C12.3772 4.70802 12.9098 4.70802 13.2506 5.04887C13.5915 5.38972 13.5915 5.92231 13.2506 6.26316Z" fill="#33B338"/>
</svg>
