<svg width="46" height="46" viewBox="0 0 46 46" fill="none" xmlns="http://www.w3.org/2000/svg">
<rect width="46" height="46" rx="10" fill="#7CD0DE"/>
<path d="M34.9773 29.4163V31.5551C34.9773 32.7349 34.0174 33.6939 32.8385 33.6939H14.4446C12.5573 33.6939 11.0225 32.1591 11.0225 30.2718V15.7278C11.0225 13.8405 12.5573 12.3057 14.4446 12.3057H30.2719C30.4404 12.3057 30.6073 12.3389 30.763 12.4033C30.9187 12.4678 31.0601 12.5624 31.1793 12.6815C31.2985 12.8007 31.393 12.9422 31.4575 13.0979C31.522 13.2536 31.5552 13.4204 31.5552 13.589C31.5552 13.7575 31.522 13.9244 31.4575 14.0801C31.393 14.2358 31.2985 14.3772 31.1793 14.4964C31.0601 14.6156 30.9187 14.7101 30.763 14.7746C30.6073 14.8391 30.4404 14.8723 30.2719 14.8723H14.4446C14.2243 14.8821 14.0163 14.9765 13.8639 15.1359C13.7115 15.2953 13.6265 15.5073 13.6265 15.7278C13.6265 15.9483 13.7115 16.1603 13.8639 16.3197C14.0163 16.479 14.2243 16.5735 14.4446 16.5833H32.8385C34.0174 16.5833 34.9773 17.5424 34.9773 18.7221V20.861H30.6996C28.341 20.861 26.422 22.7799 26.422 25.1386C26.422 27.4973 28.341 29.4163 30.6996 29.4163H34.9773Z" fill="#090C13"/>
<path d="M34.9771 22.5723V27.7054H30.6994C30.0187 27.7054 29.3659 27.435 28.8845 26.9537C28.4032 26.4724 28.1328 25.8196 28.1328 25.1389C28.1328 24.4582 28.4032 23.8053 28.8845 23.324C29.3659 22.8427 30.0187 22.5723 30.6994 22.5723H34.9771Z" fill="#090C13"/>
</svg>
