<svg width="19" height="19" viewBox="0 0 19 19" fill="none" xmlns="http://www.w3.org/2000/svg">
<path d="M13.9902 8.98047C11.2278 8.98047 8.98047 11.2278 8.98047 13.9902C8.98047 16.7527 11.2278 19 13.9902 19C16.7527 19 19 16.7527 19 13.9902C19 11.2278 16.7527 8.98047 13.9902 8.98047ZM16.2168 14.5469H13.9902C13.6826 14.5469 13.4336 14.2979 13.4336 13.9902V11.7637C13.4336 11.456 13.6826 11.207 13.9902 11.207C14.2979 11.207 14.5469 11.456 14.5469 11.7637V13.4336H16.2168C16.5244 13.4336 16.7734 13.6826 16.7734 13.9902C16.7734 14.2979 16.5244 14.5469 16.2168 14.5469ZM17.8496 1.70703C17.8496 1.39524 17.6048 1.15039 17.293 1.15039H14.5098V2.82031C14.5098 3.13196 14.2649 3.37695 13.9531 3.37695C13.6413 3.37695 13.3965 3.13196 13.3965 2.82031V1.15039H11.1699V2.82031C11.1699 3.13196 10.9251 3.37695 10.6133 3.37695C10.3015 3.37695 10.0566 3.13196 10.0566 2.82031V1.15039H7.83008V2.82031C7.83008 3.13196 7.58523 3.37695 7.27344 3.37695C6.96164 3.37695 6.7168 3.13196 6.7168 2.82031V1.15039H4.49023V2.82031C4.49023 3.13196 4.24539 3.37695 3.93359 3.37695C3.6218 3.37695 3.37695 3.13196 3.37695 2.82031V1.15039H0.556641C0.244848 1.15039 0 1.39524 0 1.70703V4.49023H17.8496V1.70703Z" fill="#FB8B34"/>
<path d="M8.38672 11.1699H8.52039C8.7236 10.7751 8.95293 10.396 9.23355 10.0566H8.38672C8.07908 10.0566 7.83008 9.80764 7.83008 9.5C7.83008 9.19236 8.07908 8.94336 8.38672 8.94336H9.5C9.72804 8.94336 9.92268 9.08092 10.0088 9.27705C11.0753 8.37614 12.4509 7.83008 13.9531 7.83008H12.8398C12.5322 7.83008 12.2832 7.58107 12.2832 7.27344C12.2832 6.9658 12.5322 6.7168 12.8398 6.7168H13.9531C14.2608 6.7168 14.5098 6.9658 14.5098 7.27344C14.5098 7.58107 14.2608 7.83008 13.9531 7.83008C15.4321 7.83008 16.7902 8.3574 17.8496 9.23355V5.60352H0V16.1797C0 16.4873 0.249004 16.7363 0.556641 16.7363H8.50603C8.07708 15.9002 7.83008 14.9557 7.83008 13.9531C7.83008 13.3404 7.93992 12.7565 8.10825 12.198C7.94489 12.101 7.83008 11.9305 7.83008 11.7266C7.83008 11.4189 8.07908 11.1699 8.38672 11.1699ZM8.38672 6.7168H9.5C9.80764 6.7168 10.0566 6.9658 10.0566 7.27344C10.0566 7.58107 9.80764 7.83008 9.5 7.83008H8.38672C8.07908 7.83008 7.83008 7.58107 7.83008 7.27344C7.83008 6.9658 8.07908 6.7168 8.38672 6.7168ZM5.04688 14.5098H3.93359C3.62596 14.5098 3.37695 14.2608 3.37695 13.9531C3.37695 13.6455 3.62596 13.3965 3.93359 13.3965H5.04688C5.35451 13.3965 5.60352 13.6455 5.60352 13.9531C5.60352 14.2608 5.35451 14.5098 5.04688 14.5098ZM5.04688 12.2832H3.93359C3.62596 12.2832 3.37695 12.0342 3.37695 11.7266C3.37695 11.4189 3.62596 11.1699 3.93359 11.1699H5.04688C5.35451 11.1699 5.60352 11.4189 5.60352 11.7266C5.60352 12.0342 5.35451 12.2832 5.04688 12.2832ZM5.04688 10.0566H3.93359C3.62596 10.0566 3.37695 9.80764 3.37695 9.5C3.37695 9.19236 3.62596 8.94336 3.93359 8.94336H5.04688C5.35451 8.94336 5.60352 9.19236 5.60352 9.5C5.60352 9.80764 5.35451 10.0566 5.04688 10.0566ZM5.04688 7.83008H3.93359C3.62596 7.83008 3.37695 7.58107 3.37695 7.27344C3.37695 6.9658 3.62596 6.7168 3.93359 6.7168H5.04688C5.35451 6.7168 5.60352 6.9658 5.60352 7.27344C5.60352 7.58107 5.35451 7.83008 5.04688 7.83008ZM4.49023 0.556641C4.49023 0.244848 4.24539 0 3.93359 0C3.6218 0 3.37695 0.244848 3.37695 0.556641V1.15039H4.49023V0.556641ZM7.83008 0.556641C7.83008 0.244848 7.58523 0 7.27344 0C6.96164 0 6.7168 0.244848 6.7168 0.556641V1.15039H7.83008V0.556641ZM11.1699 0.556641C11.1699 0.244848 10.9251 0 10.6133 0C10.3015 0 10.0566 0.244848 10.0566 0.556641V1.15039H11.1699V0.556641ZM14.5098 0.556641C14.5098 0.244848 14.2649 0 13.9531 0C13.6413 0 13.3965 0.244848 13.3965 0.556641V1.15039H14.5098V0.556641Z" fill="#FB8B34"/>
</svg>
