<svg width="224" height="34" viewBox="0 0 224 34" fill="none" xmlns="http://www.w3.org/2000/svg">
<path d="M16.8097 28.287H7.2005L5.54259 32.8661H0L9.46315 8.72005H14.3959L24.164 32.8661H18.4932L16.8072 28.287H16.8097ZM8.83023 23.7335H15.1672L11.982 15.1006L8.83023 23.7335ZM25.9782 24.9993V14.237H31.0134V24.4253C31.0134 27.0749 32.4151 28.656 34.7418 28.656C37.0685 28.656 38.442 27.0416 38.442 24.4253V14.237H43.4772V24.9993C43.4772 30.0294 40.0076 33.3914 34.7418 33.3914C29.4759 33.3914 25.9756 30.0294 25.9756 24.9993H25.9782ZM66.7853 7.52594V32.8661H63.0672L62.4727 31.3158C60.9096 32.6457 58.8955 33.4221 56.638 33.4221C50.9878 33.4221 46.8443 29.1915 46.8443 23.5541C46.8443 17.9167 50.9878 13.7143 56.638 13.7143C58.5624 13.7143 60.3074 14.2729 61.7501 15.2569V7.52594H66.7853ZM62.1268 23.5541C62.1268 20.6355 59.9769 18.4497 57.0505 18.4497C54.1242 18.4497 51.9794 20.6278 51.9794 23.5541C51.9794 26.4804 54.1242 28.6585 57.0505 28.6585C59.9769 28.6585 62.1268 26.4676 62.1268 23.5541ZM71.6283 14.2396H76.6636V32.8661H71.6283V14.2396ZM71.6386 7.07495H76.6559V11.7566H71.6386V7.07495ZM92.8916 28.3818V32.8661H89.3144C85.2171 32.8661 82.6982 30.3472 82.6982 26.2139V18.2857H79.3311V17.1967L86.6879 9.37604H87.6514V14.237H92.7917V18.2857H87.736V25.5451C87.736 27.344 88.7712 28.3792 90.6059 28.3792H92.8942L92.8916 28.3818Z" fill="black"/>
<path d="M143.003 14.2114V32.8379H139.054L138.621 31.1723C137.022 32.574 134.934 33.3939 132.584 33.3939C126.98 33.3939 122.813 29.1633 122.813 23.5259C122.813 17.8885 126.98 13.7143 132.584 13.7143C134.975 13.7143 137.094 14.5573 138.703 15.9923L139.241 14.2114H143H143.003ZM138.068 23.5259C138.068 20.5996 135.923 18.4215 132.997 18.4215C130.07 18.4215 127.92 20.6073 127.92 23.5259C127.92 26.4446 130.07 28.6303 132.997 28.6303C135.923 28.6303 138.068 26.4522 138.068 23.5259ZM161.542 28.2357V32.8661H146.142V32.3049L154.083 18.8084H146.908V14.2396H161.535V14.9263L153.691 28.2357H161.542ZM183.777 14.2114V32.8379H179.828L179.395 31.1723C177.796 32.574 175.708 33.3939 173.358 33.3939C167.754 33.3939 163.587 29.1633 163.587 23.5259C163.587 17.8885 167.754 13.7143 173.358 13.7143C175.749 13.7143 177.868 14.5573 179.477 15.9923L180.015 14.2114H183.774H183.777ZM178.842 23.5259C178.842 20.5996 176.697 18.4215 173.77 18.4215C170.844 18.4215 168.694 20.6073 168.694 23.5259C168.694 26.4446 170.844 28.6303 173.77 28.6303C176.697 28.6303 178.842 26.4522 178.842 23.5259ZM207.579 14.2114V32.8379H203.631L203.198 31.1723C201.599 32.574 199.51 33.3939 197.161 33.3939C191.556 33.3939 187.39 29.1633 187.39 23.5259C187.39 17.8885 191.556 13.7143 197.161 13.7143C199.551 13.7143 201.67 14.5573 203.28 15.9923L203.818 14.2114H207.577H207.579ZM202.644 23.5259C202.644 20.5996 200.499 18.4215 197.573 18.4215C194.647 18.4215 192.497 20.6073 192.497 23.5259C192.497 26.4446 194.647 28.6303 197.573 28.6303C200.499 28.6303 202.644 26.4522 202.644 23.5259ZM223.6 14.1371V18.8879H221.414C218.575 18.8879 217.453 20.146 217.453 23.1902V32.8661H212.417V14.2396H215.646L216.54 16.5227C217.868 14.8751 219.549 14.1371 221.942 14.1371H223.597H223.6ZM117.799 13.2607C118.993 13.7835 119.759 14.5343 120.148 14.975V9.9039C120.148 4.43305 115.713 0 110.245 0C104.776 0 100.341 4.43561 100.341 9.9039V15.3107V27.4747C100.341 30.7751 103.016 33.4529 106.319 33.4529H114.17C117.473 33.4529 120.148 30.7777 120.148 27.4747V21.2889C120.148 17.9859 117.471 15.3107 114.17 15.3107H105.376V9.9039C105.376 7.21588 107.557 5.03523 110.245 5.03523C112.933 5.03523 115.113 7.21588 115.113 9.9039V12.6944C115.692 12.6944 116.687 12.7713 117.799 13.2607ZM110.058 19.7309C111.756 19.6259 113.168 20.9737 113.168 22.6496C113.168 23.5029 112.802 24.2716 112.218 24.8071C111.923 25.0788 111.741 25.4529 111.741 25.8526V27.5464C111.741 28.3741 111.07 29.0454 110.242 29.0454C109.414 29.0454 108.743 28.3741 108.743 27.5464V25.8526C108.743 25.4657 108.587 25.0916 108.297 24.8353C107.659 24.2665 107.27 23.4234 107.321 22.4907C107.398 21.0224 108.587 19.8206 110.055 19.7309H110.058Z" fill="url(#paint0_linear_75_3877)"/>
<defs>
<linearGradient id="paint0_linear_75_3877" x1="100.336" y1="16.7252" x2="223.597" y2="16.7252" gradientUnits="userSpaceOnUse">
<stop stop-color="#FF992E"/>
<stop offset="0.22" stop-color="#F88038"/>
<stop offset="0.67" stop-color="#E74352"/>
<stop offset="1" stop-color="#DA1467"/>
</linearGradient>
</defs>
</svg>
