<svg width="1905" height="178" viewBox="0 0 1905 178" fill="none" xmlns="http://www.w3.org/2000/svg">
<g opacity="0.4">
<g filter="url(#filter0_ii_356_6134)">
<path d="M0.0898438 42.0021C0.0898438 42.0021 143.566 89.0021 238.177 89.0021C332.787 89.0021 381.652 42.0021 476.263 42.0021C570.874 42.0021 619.739 88.8233 714.35 89.0021C809.875 89.1826 859.295 41.6374 954.82 42.0021C1048.52 42.3597 1096.83 88.8215 1190.52 89.0021C1285.13 89.1844 1334 42.0021 1428.61 42.0021C1523.22 42.0021 1572.09 89.0021 1666.7 89.0021C1761.31 89.0021 1904.78 42.0021 1904.78 42.0021V72.0021C1904.78 72.0021 1761.31 119.002 1666.7 119.002C1572.09 119.002 1523.22 72.0021 1428.61 72.0021C1334 72.0021 1285.13 119.184 1190.52 119.002C1096.83 118.822 1048.52 72.3597 954.82 72.0021C859.295 71.6374 809.875 119.183 714.35 119.002C619.739 118.823 570.874 72.0021 476.263 72.0021C381.652 72.0021 332.787 119.002 238.177 119.002C143.566 119.002 0.0898438 72.0021 0.0898438 72.0021V42.0021Z" fill="#5D677D"/>
</g>
<path d="M0.589844 71.639V42.6901C0.844869 42.7726 1.17293 42.8783 1.57163 43.0061C2.64663 43.3506 4.23518 43.8559 6.29032 44.4988C10.4006 45.7847 16.3773 47.6214 23.8447 49.8254C38.7793 54.2332 59.6779 60.1104 83.5346 65.9876C131.237 77.7392 190.807 89.5021 238.176 89.5021C285.562 89.5021 321.495 77.7312 357.357 65.9833L357.375 65.9772C393.245 54.2271 429.046 42.5021 476.263 42.5021C523.481 42.5021 559.282 54.1826 595.151 65.9103L595.326 65.9673C631.136 77.6758 667.033 89.4127 714.349 89.5021C762.122 89.5924 798.386 77.7651 834.563 65.9663L834.74 65.9084C870.976 54.0902 907.144 42.3201 954.818 42.5021C1001.52 42.6804 1036.92 54.3307 1072.38 65.9987L1072.52 66.0434C1108.02 77.7261 1143.59 89.4116 1190.52 89.5021C1237.92 89.5934 1273.85 77.8183 1309.72 66.0455L1309.86 65.9999C1345.68 54.2422 1381.45 42.5021 1428.61 42.5021C1475.83 42.5021 1511.63 54.2271 1547.5 65.9772L1547.52 65.9833C1583.38 77.7312 1619.31 89.5021 1666.7 89.5021C1714.07 89.5021 1773.64 77.7392 1821.34 65.9876C1845.2 60.1104 1866.09 54.2332 1881.03 49.8254C1888.5 47.6214 1894.47 45.7847 1898.58 44.4988C1900.64 43.8559 1902.23 43.3506 1903.3 43.0061C1903.7 42.8783 1904.03 42.7726 1904.28 42.6901V71.639L1904.21 71.6613C1903.94 71.75 1903.53 71.8818 1903 72.0538C1901.92 72.3977 1900.34 72.9022 1898.28 73.5444C1894.18 74.8289 1888.21 76.664 1880.75 78.8663C1865.82 83.2709 1844.94 89.1438 1821.1 95.0166C1773.41 106.765 1713.94 118.502 1666.7 118.502C1619.48 118.502 1583.68 106.777 1547.81 95.0269L1547.79 95.0209C1511.93 83.273 1475.99 71.5021 1428.61 71.5021C1381.29 71.5021 1345.4 83.2842 1309.59 95.0377L1309.41 95.0954C1273.54 106.868 1237.74 118.593 1190.52 118.502C1143.76 118.412 1108.33 106.776 1072.83 95.0936L1072.65 95.0367C1037.21 83.373 1001.68 71.681 954.822 71.5021C906.971 71.3194 870.666 83.1396 834.43 94.9577L834.289 95.0036C798.1 106.807 761.964 118.592 714.351 118.502C667.193 118.413 631.423 106.718 595.6 95.0048L595.462 94.9598C559.593 83.2322 523.656 71.5021 476.263 71.5021C428.878 71.5021 392.945 83.273 357.083 95.0209L357.064 95.0269C321.195 106.777 285.394 118.502 238.176 118.502C190.935 118.502 131.462 106.765 83.7738 95.0166C59.9351 89.1438 39.0515 83.2709 24.1278 78.8663C16.6661 76.664 10.6945 74.8289 6.5889 73.5444C4.53608 72.9022 2.94975 72.3977 1.87686 72.0538C1.34042 71.8818 0.932336 71.75 0.658484 71.6613C0.63458 71.6535 0.611698 71.6461 0.589844 71.639Z" stroke="black"/>
</g>
<g filter="url(#filter1_d_356_6134)">
<path d="M0.0898438 42.0021V72.0021C0.0898438 72.0021 143.566 119.002 238.177 119.002C332.787 119.002 381.652 72.0021 476.263 72.0021C570.874 72.0021 619.739 118.823 714.35 119.002C809.875 119.183 859.295 71.6374 954.82 72.0021V42.0021C859.295 41.6374 809.875 89.1826 714.35 89.0021C619.739 88.8233 570.874 42.0021 476.263 42.0021C381.652 42.0021 332.787 89.0021 238.177 89.0021C143.566 89.0021 0.0898438 42.0021 0.0898438 42.0021Z" fill="#7CD0DE"/>
<path d="M0.589844 71.639V42.6901C0.844869 42.7726 1.17293 42.8783 1.57163 43.0061C2.64663 43.3506 4.23518 43.8559 6.29032 44.4988C10.4006 45.7847 16.3773 47.6214 23.8447 49.8254C38.7793 54.2332 59.6779 60.1104 83.5346 65.9876C131.237 77.7392 190.807 89.5021 238.177 89.5021C285.562 89.5021 321.494 77.7312 357.357 65.9833L357.375 65.9772C393.245 54.2271 429.046 42.5021 476.263 42.5021C523.481 42.5021 559.282 54.1826 595.151 65.9103L595.326 65.9672C631.136 77.6758 667.033 89.4126 714.349 89.5021C762.122 89.5924 798.386 77.7651 834.563 65.9663L834.74 65.9084C870.85 54.1314 906.892 42.4022 954.32 42.5006V71.5006C906.717 71.4022 870.539 83.1809 834.43 94.9577L834.289 95.0035C798.1 106.807 761.964 118.592 714.351 118.502C667.193 118.413 631.423 106.718 595.6 95.0048L595.462 94.9598C559.593 83.2322 523.656 71.5021 476.263 71.5021C428.878 71.5021 392.945 83.273 357.083 95.0209L357.064 95.0269C321.195 106.777 285.394 118.502 238.177 118.502C190.935 118.502 131.462 106.765 83.7738 95.0166C59.9351 89.1438 39.0515 83.2709 24.1278 78.8663C16.6661 76.664 10.6945 74.8289 6.5889 73.5444C4.53609 72.9022 2.94975 72.3977 1.87686 72.0538C1.34042 71.8818 0.932336 71.75 0.658484 71.6613C0.63458 71.6535 0.611698 71.6461 0.589844 71.639Z" stroke="black"/>
</g>
<defs>
<filter id="filter0_ii_356_6134" x="0.0898438" y="42" width="1907.69" height="94.0027" filterUnits="userSpaceOnUse" color-interpolation-filters="sRGB">
<feFlood flood-opacity="0" result="BackgroundImageFix"/>
<feBlend mode="normal" in="SourceGraphic" in2="BackgroundImageFix" result="shape"/>
<feColorMatrix in="SourceAlpha" type="matrix" values="0 0 0 0 0 0 0 0 0 0 0 0 0 0 0 0 0 0 127 0" result="hardAlpha"/>
<feOffset/>
<feGaussianBlur stdDeviation="2.5"/>
<feComposite in2="hardAlpha" operator="arithmetic" k2="-1" k3="1"/>
<feColorMatrix type="matrix" values="0 0 0 0 1 0 0 0 0 1 0 0 0 0 1 0 0 0 0.1 0"/>
<feBlend mode="normal" in2="shape" result="effect1_innerShadow_356_6134"/>
<feColorMatrix in="SourceAlpha" type="matrix" values="0 0 0 0 0 0 0 0 0 0 0 0 0 0 0 0 0 0 127 0" result="hardAlpha"/>
<feOffset dx="3" dy="17"/>
<feGaussianBlur stdDeviation="18.5"/>
<feComposite in2="hardAlpha" operator="arithmetic" k2="-1" k3="1"/>
<feColorMatrix type="matrix" values="0 0 0 0 0.0125 0 0 0 0 0.0125 0 0 0 0 0.0125 0 0 0 0.6 0"/>
<feBlend mode="normal" in2="effect1_innerShadow_356_6134" result="effect2_innerShadow_356_6134"/>
</filter>
<filter id="filter1_d_356_6134" x="-37.9102" y="0" width="1054.73" height="177.003" filterUnits="userSpaceOnUse" color-interpolation-filters="sRGB">
<feFlood flood-opacity="0" result="BackgroundImageFix"/>
<feColorMatrix in="SourceAlpha" type="matrix" values="0 0 0 0 0 0 0 0 0 0 0 0 0 0 0 0 0 0 127 0" result="hardAlpha"/>
<feOffset dx="12" dy="8"/>
<feGaussianBlur stdDeviation="25"/>
<feComposite in2="hardAlpha" operator="out"/>
<feColorMatrix type="matrix" values="0 0 0 0 0.486275 0 0 0 0 0.815686 0 0 0 0 0.870588 0 0 0 0.2 0"/>
<feBlend mode="normal" in2="BackgroundImageFix" result="effect1_dropShadow_356_6134"/>
<feBlend mode="normal" in="SourceGraphic" in2="effect1_dropShadow_356_6134" result="shape"/>
</filter>
</defs>
</svg>
