<svg width="34" height="34" viewBox="0 0 34 34" fill="none" xmlns="http://www.w3.org/2000/svg">
<circle cx="17" cy="17" r="16.5" fill="white" stroke="#F3F5F7"/>
<path d="M24.4073 21.7761H22.8288V20.1976C22.8288 20.058 22.7733 19.9242 22.6746 19.8255C22.576 19.7268 22.4421 19.6714 22.3026 19.6714C22.163 19.6714 22.0292 19.7268 21.9305 19.8255C21.8318 19.9242 21.7764 20.058 21.7764 20.1976V21.7761H20.1978C20.0583 21.7761 19.9244 21.8316 19.8257 21.9303C19.7271 22.0289 19.6716 22.1628 19.6716 22.3023C19.6716 22.4419 19.7271 22.5757 19.8257 22.6744C19.9244 22.7731 20.0583 22.8285 20.1978 22.8285H21.7764V24.4071C21.7764 24.5466 21.8318 24.6805 21.9305 24.7792C22.0292 24.8778 22.163 24.9333 22.3026 24.9333C22.4421 24.9333 22.576 24.8778 22.6746 24.7792C22.7733 24.6805 22.8288 24.5466 22.8288 24.4071V22.8285H24.4073C24.5469 22.8285 24.6807 22.7731 24.7794 22.6744C24.8781 22.5757 24.9335 22.4419 24.9335 22.3023C24.9335 22.1628 24.8781 22.0289 24.7794 21.9303C24.6807 21.8316 24.5469 21.7761 24.4073 21.7761ZM18.0931 21.7761H11.7788C11.6392 21.7761 11.5054 21.7207 11.4067 21.622C11.308 21.5233 11.2526 21.3895 11.2526 21.25V11.7785C11.2526 11.639 11.308 11.5051 11.4067 11.4064C11.5054 11.3078 11.6392 11.2523 11.7788 11.2523H21.2502C21.3897 11.2523 21.5236 11.3078 21.6223 11.4064C21.7209 11.5051 21.7764 11.639 21.7764 11.7785V18.0928C21.7764 18.2324 21.8318 18.3662 21.9305 18.4649C22.0292 18.5636 22.163 18.619 22.3026 18.619C22.4421 18.619 22.576 18.5636 22.6746 18.4649C22.7733 18.3662 22.8288 18.2324 22.8288 18.0928V11.7785C22.8288 11.3599 22.6625 10.9583 22.3664 10.6623C22.0704 10.3663 21.6689 10.2 21.2502 10.2H11.7788C11.3601 10.2 10.9586 10.3663 10.6625 10.6623C10.3665 10.9583 10.2002 11.3599 10.2002 11.7785V21.25C10.2002 21.6686 10.3665 22.0701 10.6625 22.3662C10.9586 22.6622 11.3601 22.8285 11.7788 22.8285H18.0931C18.2326 22.8285 18.3664 22.7731 18.4651 22.6744C18.5638 22.5757 18.6192 22.4419 18.6192 22.3023C18.6192 22.1628 18.5638 22.0289 18.4651 21.9303C18.3664 21.8316 18.2326 21.7761 18.0931 21.7761Z" fill="#5C5C5C"/>
<path d="M14.9356 14.9356C15.6621 14.9356 16.2511 14.3467 16.2511 13.6202C16.2511 12.8936 15.6621 12.3047 14.9356 12.3047C14.2091 12.3047 13.6201 12.8936 13.6201 13.6202C13.6201 14.3467 14.2091 14.9356 14.9356 14.9356Z" fill="#5C5C5C"/>
<path d="M12.9835 16.6668L12.3047 17.3509V20.7238H20.7237V17.3509L18.4664 15.0883C18.4175 15.0389 18.3593 14.9998 18.2951 14.9731C18.231 14.9464 18.1622 14.9326 18.0928 14.9326C18.0233 14.9326 17.9545 14.9464 17.8904 14.9731C17.8263 14.9998 17.7681 15.0389 17.7192 15.0883L14.9356 17.8771L13.7307 16.6668C13.6817 16.6175 13.6236 16.5784 13.5594 16.5517C13.4953 16.5249 13.4265 16.5112 13.3571 16.5112C13.2876 16.5112 13.2188 16.5249 13.1547 16.5517C13.0906 16.5784 13.0324 16.6175 12.9835 16.6668Z" fill="#5C5C5C"/>
</svg>
