<svg width="20" height="18" viewBox="0 0 20 18" fill="none" xmlns="http://www.w3.org/2000/svg">
<g id="Group">
<path id="Vector" d="M2.36134 3.9959C2.53989 2.72503 3.12107 2.24538 4.33593 2.24538H15.2837C15.4638 2.2535 15.634 2.33084 15.7585 2.46129C15.8831 2.59173 15.9525 2.76522 15.9524 2.94559V3.9959H2.36134ZM17.3528 4.02741V2.94559C17.3528 2.39389 17.1358 1.86431 16.7487 1.47126C16.3615 1.07821 15.8353 0.853246 15.2837 0.844971H4.33593C1.29003 0.844971 0.943423 3.3272 0.89791 4.61558C0.896335 4.62837 0.896335 4.64131 0.89791 4.6541V15.8994C0.89791 16.4565 1.11922 16.9908 1.51317 17.3848C1.90711 17.7787 2.44141 18 2.99853 18H17.0027C17.5598 18 18.0941 17.7787 18.488 17.3848C18.882 16.9908 19.1033 16.4565 19.1033 15.8994V6.09652C19.1028 5.60047 18.9267 5.1206 18.6064 4.74189C18.286 4.36319 17.8419 4.11009 17.3528 4.02741ZM15.0771 12.7485C14.7655 12.7485 14.4609 12.6561 14.2018 12.483C13.9427 12.3099 13.7408 12.0638 13.6216 11.7759C13.5023 11.488 13.4711 11.1713 13.5319 10.8657C13.5927 10.5601 13.7427 10.2793 13.9631 10.059C14.1834 9.83867 14.4641 9.68862 14.7697 9.62783C15.0753 9.56704 15.3921 9.59824 15.68 9.71748C15.9679 9.83672 16.2139 10.0387 16.387 10.2977C16.5602 10.5568 16.6526 10.8614 16.6526 11.173C16.653 11.38 16.6126 11.5851 16.5336 11.7765C16.4546 11.9678 16.3385 12.1417 16.1921 12.2881C16.0458 12.4345 15.8719 12.5505 15.6805 12.6295C15.4892 12.7085 15.2841 12.7489 15.0771 12.7485Z" fill="url(#paint0_linear_35_95)"/>
</g>
<defs>
<linearGradient id="paint0_linear_35_95" x1="1.35624" y1="11.545" x2="18.008" y2="13.7769" gradientUnits="userSpaceOnUse">
<stop stop-color="#FD8F33"/>
<stop offset="1" stop-color="#DD1D64"/>
</linearGradient>
</defs>
</svg>
