<svg xmlns="http://www.w3.org/2000/svg" width="36" height="36.004" viewBox="0 0 36 36.004">
  <g id="Group_38035" data-name="Group 38035" transform="translate(-298 -489)">
    <path id="Path_29" data-name="Path 29" d="M35.461,22.358A18,18,0,1,1,22.352.539,18,18,0,0,1,35.461,22.358h0Z" transform="translate(298 488.999)" fill="#617ee8"/>
    <g id="Layer_x0020_1" transform="translate(309.328 496.061)">
      <g id="_1421394342400">
        <g id="Group_8" data-name="Group 8">
          <path id="Path_34" data-name="Path 34" d="M383.646,0,383.5.5V14.912l.146.146,6.691-3.955Z" transform="translate(-376.955)" fill="#bfcbf6"/>
          <path id="Path_35" data-name="Path 35" d="M6.691,0,0,11.1l6.691,3.955V0Z" fill="#fff"/>
          <path id="Path_36" data-name="Path 36" d="M387.322,728.843l-.082.1v5.135l.082.241,6.7-9.429Z" transform="translate(-380.631 -712.518)" fill="#b1bff4"/>
          <path id="Path_37" data-name="Path 37" d="M6.691,734.319v-5.476L0,724.89Z" transform="translate(0 -712.518)" fill="#fff"/>
          <path id="Path_38" data-name="Path 38" d="M392.07,479.327l6.691-3.955-6.691-3.042Z" transform="translate(-385.379 -464.269)" fill="#8198ee"/>
          <path id="Path_39" data-name="Path 39" d="M0,475.371l6.691,3.955v-7Z" transform="translate(0 -464.269)" fill="#c0ccf7"/>
        </g>
      </g>
    </g>
  </g>
</svg>
