<svg width="44" height="19" viewBox="0 0 44 19" fill="none" xmlns="http://www.w3.org/2000/svg">
<g clip-path="url(#clip0_314_8648)">
<path d="M34.9351 5.11011V5.25728C34.9351 5.25728 34.9418 11.5849 34.9304 14.7482C34.9275 15.4774 34.7764 16.1865 34.4664 16.8545C34.1736 17.4843 33.7191 17.9622 33.1201 18.3024C32.7008 18.5404 32.251 18.6942 31.7804 18.8022C30.9361 18.9962 30.0832 19.0297 29.2247 18.9809C28.8634 18.9599 28.5021 18.9083 28.1446 18.85C27.8298 18.7984 27.518 18.7229 27.208 18.6455C27.0255 18.5996 26.8486 18.5289 26.6689 18.4706C26.5929 18.4458 26.5786 18.4008 26.5967 18.3244C26.6499 18.0979 26.6965 17.8704 26.744 17.643C26.784 17.4518 26.8201 17.2597 26.861 17.0686C26.8762 16.9979 26.9 16.9291 26.9237 16.845C26.9865 16.8593 27.0378 16.866 27.0854 16.8832C27.5085 17.0285 27.9411 17.1365 28.3804 17.2244C29.0573 17.3601 29.7371 17.3821 30.4217 17.3429C30.4426 17.3419 30.4635 17.34 30.4845 17.341C30.9408 17.362 31.3706 17.2416 31.7871 17.0734C32.3461 16.8478 32.7245 16.4445 32.9223 15.8711C33.044 15.5185 33.1191 15.1601 33.1049 14.7836C33.0973 14.5838 33.1039 14.3831 33.1039 14.1538C33.0326 14.1844 32.9803 14.2025 32.9328 14.2274C32.3946 14.5045 31.826 14.6909 31.2308 14.7864C30.8515 14.8476 30.4693 14.8524 30.0832 14.8075C29.605 14.752 29.1419 14.6526 28.6932 14.4777C27.7804 14.1213 27.1101 13.4934 26.6394 12.639C26.3409 12.0962 26.165 11.5113 26.0699 10.9016C26.0433 10.7295 26.0157 10.5556 26.0148 10.3817C26.0119 9.92199 25.9958 9.45943 26.0347 9.00262C26.0899 8.35084 26.2696 7.72678 26.5653 7.13903C26.8344 6.60384 27.1823 6.12982 27.6378 5.74182C28.2463 5.22192 28.948 4.88074 29.7248 4.7049C30.281 4.57874 30.8477 4.54338 31.4181 4.56059C32.4374 4.59117 33.4348 4.76988 34.4255 5.00307C34.5881 5.0413 34.7602 5.07857 34.9342 5.11488L34.9351 5.11011ZM33.0944 9.44797C33.0944 9.44797 33.0973 9.44797 33.0982 9.44797V6.49776L33.0896 6.38308C33.0896 6.38308 32.8006 6.30949 32.7179 6.29611C32.5154 6.26362 32.309 6.23686 32.1065 6.23017C31.6283 6.21392 31.1491 6.22157 30.6708 6.21679C30.4521 6.21392 30.243 6.25406 30.0347 6.31809C29.4928 6.48343 29.0212 6.75675 28.6703 7.21262C28.4631 7.48116 28.3062 7.77838 28.1807 8.09567C27.963 8.6471 27.9059 9.22147 27.905 9.80635C27.905 10.0338 27.905 10.2632 27.9382 10.4868C28.0048 10.9379 28.1293 11.3718 28.3433 11.7798C28.7188 12.4937 29.3055 12.9257 30.0737 13.1207C30.2087 13.1551 30.3552 13.156 30.4968 13.156C30.8277 13.156 31.1633 13.179 31.4885 13.1302C31.963 13.0605 32.4098 12.8808 32.8396 12.6629C33.0288 12.5673 33.1001 12.5129 33.1001 12.5129C33.0916 11.5877 33.0963 10.375 33.0963 9.44988L33.0944 9.44797Z" fill="#7CD0DE"/>
<path d="M23.9334 13.0958C23.9429 13.1674 23.9486 13.219 23.9562 13.2706C23.9809 13.4465 24.0028 13.6223 24.0313 13.7972C24.0693 14.0333 24.0617 14.2732 24.018 14.5083C23.9856 14.6803 23.9742 14.8561 23.9533 15.0301C23.9495 15.0664 23.9476 15.1027 23.9429 15.16C23.8373 15.1658 23.7346 15.1763 23.632 15.1763C22.9845 15.1782 22.337 15.1763 21.6904 15.1772C20.7748 15.1792 19.8592 15.1811 18.9436 15.1839C18.6812 15.1839 18.6564 15.1658 18.6251 14.9077C18.5718 14.4653 18.5794 14.0209 18.5956 13.5774C18.5994 13.4561 18.6127 13.3347 18.6184 13.2133C18.6241 13.0814 18.6022 13.0528 18.4682 13.0489C18.3103 13.0442 17.6942 13.0432 17.4166 13.0432C17.3415 13.0432 17.2806 12.9811 17.2825 12.9056C17.2835 12.8138 17.2854 12.7011 17.2854 12.6495C17.2835 12.1468 17.2882 11.645 17.2911 11.1423C17.2911 11.0802 17.2911 11.0171 17.2911 10.935C17.1932 10.9283 17.1057 10.9216 17.0182 10.9177C16.9184 10.9139 16.8185 10.9177 16.7187 10.912C16.6217 10.9063 16.5466 10.8633 16.5267 10.7591C16.5067 10.6559 16.4763 10.5517 16.4744 10.4476C16.4677 10.0509 16.4677 9.65433 16.4734 9.25772C16.4744 9.15929 16.5 9.0599 16.5219 8.96241C16.5409 8.87545 16.598 8.82862 16.6921 8.82862C16.829 8.82862 16.9659 8.82575 17.1019 8.82193C17.1637 8.82002 17.2255 8.81333 17.3044 8.80759C17.3044 8.74547 17.3044 8.69482 17.3044 8.64417C17.3015 8.08223 17.2977 7.52124 17.2949 6.9593C17.2949 6.93923 17.2968 6.90482 17.2996 6.88475C17.3206 6.71655 17.3272 6.70317 17.4917 6.69935C17.7703 6.69266 18.0498 6.69457 18.3284 6.69266C18.5306 6.69139 18.6282 6.58945 18.6213 6.38684C18.6213 6.05139 18.627 5.6911 18.6251 5.34705C18.6241 5.15687 18.6251 4.92368 18.6251 4.72203C18.6251 4.50796 18.6678 4.55479 18.878 4.55192C19.1566 4.5481 19.4361 4.55192 19.7147 4.55192C21.004 4.55192 22.2932 4.54714 23.5825 4.5481C23.6976 4.5481 23.8373 4.55192 23.96 4.55192V4.71439C23.9704 4.91508 23.9771 5.111 24.0265 5.30691C24.0712 5.48467 24.0579 5.6739 24.0113 5.85643C23.9457 6.11351 23.9543 6.67832 23.9543 6.67832H24.8414C24.8414 6.67832 24.9754 6.69839 24.9992 6.77294C25.0287 6.86277 25.0648 6.95452 25.0724 7.04722C25.1123 7.49352 25.1295 7.93983 25.08 8.38709C25.0762 8.42054 25.0648 8.45303 25.0486 8.4817C24.9612 8.64417 24.9298 8.80282 25.0258 8.97484C25.0581 9.03218 25.0696 9.10481 25.0762 9.17267C25.1142 9.58935 25.1323 10.006 25.081 10.4227C25.0639 10.5622 25.0268 10.6999 24.9963 10.8518C24.8908 10.9053 24.7643 10.9015 24.6398 10.9025C24.056 10.9053 23.4713 10.9044 22.8875 10.9053C21.8768 10.9072 20.867 10.9072 19.8563 10.9111C19.7308 10.9111 19.6063 10.9254 19.4817 10.9321C19.4361 11.0248 19.4551 11.1089 19.4732 11.1901C19.5692 11.6135 19.5407 12.0426 19.5217 12.4698C19.5169 12.5787 19.4684 12.6848 19.4484 12.7938C19.4028 13.0451 19.4247 13.07 19.6747 13.0786C19.7641 13.0814 19.8535 13.0814 19.9429 13.0814C21.1951 13.0814 22.4482 13.0824 23.7004 13.0833C23.7727 13.0833 23.8459 13.09 23.9372 13.0948L23.9334 13.0958ZM22.877 8.80855C22.877 8.73974 22.877 8.69291 22.877 8.64608C22.8713 8.22367 22.8647 7.80126 22.8609 7.37884C22.859 7.17815 22.8694 6.97745 22.8656 6.77676C22.8628 6.64105 22.8418 6.62672 22.7049 6.62385C22.5528 6.62003 22.3997 6.61334 22.2476 6.61429C21.4375 6.62003 20.6274 6.62672 19.8183 6.63436C19.7451 6.63436 19.67 6.63436 19.5987 6.64679C19.4551 6.66972 19.4323 6.70986 19.4589 6.8513C19.4808 6.97076 19.5141 7.08927 19.5179 7.20969C19.5274 7.52697 19.5245 7.84426 19.5245 8.16059C19.5245 8.20742 19.516 8.25521 19.5064 8.30108C19.4836 8.40812 19.4503 8.51324 19.4361 8.62123C19.4199 8.7407 19.4475 8.77797 19.5635 8.79708C19.6766 8.81524 19.7936 8.82193 19.9086 8.82193C20.829 8.8248 21.7494 8.8248 22.6697 8.8248C22.7315 8.8248 22.7933 8.81524 22.877 8.80855Z" fill="#7CD0DE"/>
<path d="M41.2654 15.0358C41.4394 15.0434 41.6106 15.0568 41.7817 15.0578C42.0993 15.0597 42.4454 14.7921 42.5138 14.4843C42.549 14.3257 42.568 14.1594 42.568 13.9969C42.568 13.4895 42.5528 12.9811 42.5519 12.4736C42.549 11.3048 42.5538 10.135 42.55 8.96621C42.549 8.57534 42.5557 8.18064 42.5138 7.79263C42.4454 7.15805 42.1934 6.6114 41.6343 6.25302C41.4023 6.10489 41.1447 6.03799 40.8699 6.03608C40.6541 6.03417 40.4401 6.03512 40.2281 6.09246C39.8611 6.1909 39.5654 6.3849 39.361 6.70793C39.1347 7.06535 38.9835 7.45049 38.975 7.88246C38.9712 8.07838 38.955 8.27334 38.955 8.46926C38.9531 10.0251 38.955 11.58 38.9512 13.1359C38.9512 13.5057 38.9426 13.8765 38.9227 14.2464C38.8989 14.6736 38.6821 14.9765 38.3037 15.1715C37.8768 15.3913 37.4242 15.3961 36.9631 15.3492C36.7016 15.3225 36.4601 15.2413 36.2424 15.0941C36.2177 15.0778 36.1977 15.0549 36.1863 15.0128C36.2177 15.0205 36.249 15.0281 36.2814 15.0348C36.5267 15.0864 36.771 15.1075 37.0078 14.9956C37.3063 14.8552 37.4651 14.6143 37.4974 14.2894C37.5126 14.1422 37.5098 13.9941 37.5126 13.8459C37.5136 13.7771 37.506 13.7083 37.506 13.6395C37.505 12.0626 37.5022 10.4867 37.5041 8.90983C37.5041 8.52946 37.5069 8.14719 37.5326 7.76778C37.5716 7.18481 37.7456 6.63816 38.028 6.12782C38.1487 5.90993 38.2847 5.70445 38.4539 5.52001C38.8504 5.08804 39.3458 4.82809 39.9058 4.70481C40.7349 4.52132 41.5497 4.56814 42.317 4.96858C42.6859 5.16067 42.994 5.43304 43.2431 5.76944C43.592 6.24155 43.7879 6.77769 43.9115 7.34632C43.9704 7.61678 43.9952 7.89107 43.9961 8.16535C44.0018 10.0385 44.0018 11.9107 44.0028 13.7838C44.0028 13.9367 43.9923 14.0906 43.9828 14.2435C43.959 14.6525 43.7594 14.9526 43.4066 15.1485C43.1347 15.2995 42.8409 15.3703 42.5281 15.3703C42.2695 15.3703 42.0128 15.3617 41.7589 15.3053C41.5849 15.2671 41.4375 15.1782 41.294 15.0778C41.2797 15.0673 41.273 15.0463 41.2673 15.0367L41.2654 15.0358Z" fill="#7CD0DE"/>
<path d="M39.1282 4.6915C39.1035 4.70679 39.0787 4.72495 39.0531 4.73833C38.3695 5.09193 37.8893 5.63572 37.5841 6.33719C37.3274 6.9259 37.2123 7.54805 37.2104 8.18931C37.2066 10.1571 37.2095 12.1248 37.2076 14.0935C37.2076 14.1929 37.2 14.2952 37.1791 14.3927C37.1486 14.5341 37.0631 14.6354 36.929 14.6985C36.6381 14.8361 36.3424 14.8246 36.0543 14.7138C35.8793 14.6459 35.769 14.4997 35.7576 14.299C35.7548 14.2465 35.7576 14.1929 35.7576 14.1404C35.7576 12.1669 35.7557 10.1934 35.7586 8.22085C35.7586 7.66177 35.9002 7.13328 36.1484 6.63537C36.5629 5.80296 37.2428 5.27256 38.0833 4.92756C38.3913 4.80045 38.7155 4.7326 39.0407 4.6657C39.0654 4.66092 39.0921 4.6657 39.1177 4.6657C39.1206 4.6743 39.1244 4.68386 39.1272 4.69246L39.1282 4.6915Z" fill="#7CD0DE"/>
<path d="M39.3393 7.3789C39.5722 6.81695 39.9022 6.42416 40.4926 6.31426C41.2799 6.16804 41.9055 6.62486 42.1337 7.38463C42.2487 7.76786 42.2582 8.16734 42.2592 8.56395C42.264 10.4524 42.2621 12.3399 42.2611 14.2283C42.2611 14.5093 42.1356 14.6603 41.8675 14.7463C41.6079 14.8294 41.3521 14.8055 41.1078 14.7195C40.9214 14.6536 40.8406 14.4749 40.814 14.2809C40.8054 14.2187 40.8092 14.1538 40.8092 14.0907C40.8092 12.187 40.8092 10.2832 40.8092 8.37854C40.8092 8.16829 40.7712 7.96951 40.6771 7.78124C40.524 7.47351 40.2749 7.31295 39.9355 7.30626C39.8004 7.3034 39.6645 7.33111 39.5295 7.3464C39.4791 7.35214 39.4287 7.36265 39.3374 7.37794L39.3393 7.3789Z" fill="#7CD0DE"/>
<path d="M-2.57663e-05 14.7338L0.7473 13.9884C0.7473 13.9884 0.924148 13.7848 1.22175 13.7848C1.79032 13.7886 2.35795 13.7982 2.92557 13.7991C3.41428 13.7991 3.90394 13.7896 4.39265 13.7877C4.94982 13.7857 5.50794 13.7877 6.0651 13.7886C6.26002 13.7886 6.45398 13.7924 6.64889 13.7963C6.73827 13.7982 6.82764 13.8001 6.91702 13.8096C7.01875 13.8211 7.10052 13.8632 7.17468 13.9434C7.42094 14.2101 7.67765 14.4681 7.91916 14.7185C7.7965 14.8609 7.68431 14.9976 7.56641 15.1275C7.54169 15.1543 7.49795 15.1724 7.46087 15.1763C7.36199 15.1868 7.26121 15.1896 7.16137 15.1896C5.5783 15.1954 3.99427 15.2002 2.41119 15.204C1.81695 15.2049 1.2227 15.2002 0.6275 15.204C0.465864 15.204 0.466815 15.204 0.308983 15.0473C0.231969 14.9679 -0.000976562 14.7338 -0.000976562 14.7338H-2.57663e-05Z" fill="#7CD0DE"/>
<path d="M7.92396 0.444394C7.81272 0.570545 7.70433 0.698607 7.59023 0.820935C7.45712 0.963332 7.3145 1.09713 7.18329 1.24144C7.08821 1.34561 6.98267 1.39626 6.83815 1.39626C5.14479 1.39435 3.45142 1.39817 1.7571 1.39912C1.5156 1.39912 1.27314 1.39721 1.03164 1.39912C0.952725 1.39912 0.889972 1.37714 0.834826 1.31885C0.603782 1.07324 0.370837 0.829536 0.138843 0.58488C0.113172 0.558121 0.0894017 0.530406 0.064681 0.502691C0.0275999 0.461597 0.0218951 0.417635 0.0627794 0.37654C0.169269 0.268548 0.269102 0.150043 0.387001 0.0563855C0.442147 0.0133796 0.535325 0.0066898 0.611389 0.00573412C1.29501 0.00191137 5.68103 0 7.1909 0C7.2489 0 7.3069 0 7.36489 0.00286706C7.44666 0.00477843 7.51322 0.033449 7.57217 0.09748C7.69007 0.223631 7.81747 0.340224 7.92491 0.444394H7.92396Z" fill="#7CD0DE"/>
<path d="M8.62651 1.15442C8.62651 1.15442 8.63602 7.35587 8.62651 7.46195C8.46678 7.46195 8.32416 7.46195 8.16347 7.32433C7.97426 7.15613 7.78981 6.98315 7.6044 6.81112C7.52739 6.73945 7.45703 6.66013 7.38097 6.58749C7.3049 6.51391 7.26782 6.42885 7.26782 6.3199C7.26972 4.80227 7.26972 3.28464 7.26782 1.76701C7.26782 1.66571 7.2954 1.57874 7.3648 1.50802C7.50457 1.36467 7.64814 1.22514 7.78981 1.0837C7.87253 1.00246 7.95525 0.920274 8.03892 0.840952C8.16632 0.720535 8.24714 0.728181 8.34698 0.870578C8.46487 0.978571 8.62556 1.15537 8.62556 1.15537L8.62651 1.15442Z" fill="#7CD0DE"/>
<path d="M8.62651 14.0419C8.62651 14.0419 8.63602 7.84046 8.62651 7.73438C8.46678 7.73438 8.32416 7.73438 8.16347 7.87199C7.97426 8.04019 7.78981 8.21317 7.6044 8.3852C7.52739 8.45687 7.45703 8.5362 7.38097 8.60883C7.3049 8.68242 7.26782 8.76747 7.26782 8.87642C7.26972 10.3941 7.26972 11.9117 7.26782 13.4293C7.26782 13.5306 7.2954 13.6176 7.3648 13.6883C7.50457 13.8317 7.64814 13.9712 7.78981 14.1126C7.87253 14.1939 7.95525 14.276 8.03892 14.3554C8.16632 14.4758 8.24714 14.4681 8.34698 14.3257C8.46487 14.2178 8.62556 14.0409 8.62556 14.0409L8.62651 14.0419Z" fill="#7CD0DE"/>
<path d="M4.65128 13.4579H3.28974C3.28974 13.3891 3.28974 13.3318 3.28974 13.2754C3.28974 11.9699 3.28974 10.6645 3.28784 9.35803C3.28784 9.22136 3.31256 9.09904 3.38197 8.98053C3.55787 8.68045 3.72806 8.37654 3.90206 8.0755C3.91727 8.04969 3.94009 8.02771 3.96766 7.99426C3.99618 8.02962 4.02186 8.05352 4.03992 8.08314C4.21107 8.37463 4.37745 8.66802 4.5505 8.95759C4.61515 9.06559 4.65128 9.1774 4.65223 9.30164C4.65223 9.49182 4.65414 9.68201 4.65414 9.87219C4.65414 11.0037 4.65223 12.1343 4.65128 13.2658C4.65128 13.3222 4.65128 13.3796 4.65128 13.4579Z" fill="#7CD0DE"/>
<path d="M3.28976 3.92787C3.28976 3.28756 3.28976 2.6482 3.28976 2.00789C3.28976 1.73648 3.29071 1.7403 3.55313 1.73934C3.86309 1.73839 4.174 1.73074 4.48396 1.72214C4.63894 1.71832 4.65225 1.72883 4.65225 1.8913C4.65225 3.16045 4.65035 4.43056 4.65606 5.69971C4.65701 5.92907 4.61327 6.13359 4.48872 6.32951C4.32708 6.58276 4.18731 6.85035 4.03709 7.11126C3.98384 7.203 3.93155 7.20014 3.87926 7.10648C3.71952 6.82168 3.56169 6.53498 3.39625 6.25305C3.32209 6.12594 3.28691 5.99693 3.28786 5.84784C3.29357 5.20753 3.28976 4.56818 3.28976 3.92787Z" fill="#7CD0DE"/>
<path d="M12.9784 7.04531C13.3933 7.04531 13.7296 6.49634 13.7296 5.81916C13.7296 5.14198 13.3933 4.59302 12.9784 4.59302C12.5636 4.59302 12.2273 5.14198 12.2273 5.81916C12.2273 6.49634 12.5636 7.04531 12.9784 7.04531Z" fill="#7CD0DE"/>
<path d="M10.3712 7.04531C10.7861 7.04531 11.1224 6.49634 11.1224 5.81916C11.1224 5.14198 10.7861 4.59302 10.3712 4.59302C9.95641 4.59302 9.62012 5.14198 9.62012 5.81916C9.62012 6.49634 9.95641 7.04531 10.3712 7.04531Z" fill="#7CD0DE"/>
<path d="M10.3712 9.06557C10.7861 9.06557 11.1224 8.51661 11.1224 7.83943C11.1224 7.16225 10.7861 6.61328 10.3712 6.61328C9.95641 6.61328 9.62012 7.16225 9.62012 7.83943C9.62012 8.51661 9.95641 9.06557 10.3712 9.06557Z" fill="#7CD0DE"/>
<path d="M11.7404 9.06557C12.1552 9.06557 12.4915 8.51661 12.4915 7.83943C12.4915 7.16225 12.1552 6.61328 11.7404 6.61328C11.3255 6.61328 10.9893 7.16225 10.9893 7.83943C10.9893 8.51661 11.3255 9.06557 11.7404 9.06557Z" fill="#7CD0DE"/>
<path d="M10.3712 11.0869C10.7861 11.0869 11.1224 10.538 11.1224 9.86079C11.1224 9.18361 10.7861 8.63464 10.3712 8.63464C9.95641 8.63464 9.62012 9.18361 9.62012 9.86079C9.62012 10.538 9.95641 11.0869 10.3712 11.0869Z" fill="#7CD0DE"/>
<path d="M10.3712 13.1072C10.7861 13.1072 11.1224 12.5582 11.1224 11.8811C11.1224 11.2039 10.7861 10.6549 10.3712 10.6549C9.95641 10.6549 9.62012 11.2039 9.62012 11.8811C9.62012 12.5582 9.95641 13.1072 10.3712 13.1072Z" fill="#7CD0DE"/>
<path d="M10.3712 15.1286C10.7861 15.1286 11.1224 14.5796 11.1224 13.9024C11.1224 13.2252 10.7861 12.6763 10.3712 12.6763C9.95641 12.6763 9.62012 13.2252 9.62012 13.9024C9.62012 14.5796 9.95641 15.1286 10.3712 15.1286Z" fill="#7CD0DE"/>
<path d="M14.2951 7.04531C14.7099 7.04531 15.0462 6.49634 15.0462 5.81916C15.0462 5.14198 14.7099 4.59302 14.2951 4.59302C13.8802 4.59302 13.5439 5.14198 13.5439 5.81916C13.5439 6.49634 13.8802 7.04531 14.2951 7.04531Z" fill="#7CD0DE"/>
<path d="M15.611 7.04531C16.0258 7.04531 16.3621 6.49634 16.3621 5.81916C16.3621 5.14198 16.0258 4.59302 15.611 4.59302C15.1962 4.59302 14.8599 5.14198 14.8599 5.81916C14.8599 6.49634 15.1962 7.04531 15.611 7.04531Z" fill="#7CD0DE"/>
</g>
<defs>
<clipPath id="clip0_314_8648">
<rect width="44" height="19" fill="white"/>
</clipPath>
</defs>
</svg>
